<?xml version="1.0" encoding="UTF-8" standalone="no"?>
<svg
   xmlns:dc="http://purl.org/dc/elements/1.1/"
   xmlns:cc="http://creativecommons.org/ns#"
   xmlns:rdf="http://www.w3.org/1999/02/22-rdf-syntax-ns#"
   xmlns:svg="http://www.w3.org/2000/svg"
   xmlns="http://www.w3.org/2000/svg"
   xmlns:sodipodi="http://sodipodi.sourceforge.net/DTD/sodipodi-0.dtd"
   xmlns:inkscape="http://www.inkscape.org/namespaces/inkscape"
   enable-background="new 0 0 139 139"
   height="139px"
   id="Phone"
   version="1.1"
   viewBox="0 0 139 139"
   width="139px"
   xml:space="preserve"
   sodipodi:docname="icon_call1.svg"
   inkscape:version="0.92.3 (2405546, 2018-03-11)"><metadata
     id="metadata3761"><rdf:RDF><cc:Work
         rdf:about=""><dc:format>image/svg+xml</dc:format><dc:type
           rdf:resource="http://purl.org/dc/dcmitype/StillImage" /></cc:Work></rdf:RDF></metadata><defs
     id="defs3759" /><sodipodi:namedview
     pagecolor="#ffffff"
     bordercolor="#666666"
     borderopacity="1"
     objecttolerance="10"
     gridtolerance="10"
     guidetolerance="10"
     inkscape:pageopacity="0"
     inkscape:pageshadow="2"
     inkscape:window-width="1920"
     inkscape:window-height="1018"
     id="namedview3757"
     showgrid="false"
     inkscape:zoom="6.1486812"
     inkscape:cx="42.571568"
     inkscape:cy="69.039196"
     inkscape:window-x="-8"
     inkscape:window-y="-8"
     inkscape:window-maximized="1"
     inkscape:current-layer="Phone" /><path
     d="M 66.646119,85.534089 C 54.710734,75.741889 46.741382,63.658769 42.551654,56.783453 l -3.125258,-5.878656 c 1.092746,-1.169832 9.425921,-10.073116 13.037133,-14.903798 4.538125,-6.065932 -2.041511,-11.544385 -2.041511,-11.544385 0,0 -18.513737,-18.4748529 -22.733033,-22.1395542 C 23.469692,-1.3527692 18.612739,0.6854559 18.612739,0.6854559 9.7447657,6.402491 0.5515353,11.372987 1.8616499e-5,35.27755 -0.02055058,57.658258 17.00704,80.74189 35.420505,98.612547 53.863533,118.7947 79.185731,139.02312 103.66714,138.99998 c 23.95558,-0.54512 28.936,-9.7165 34.66587,-18.56473 0,0 2.04411,-4.84212 -1.63013,-9.0559 -3.67682,-4.21229 -22.19564,-22.688511 -22.19564,-22.688511 0,0 -5.48691,-6.566187 -11.56773,-2.034379 -4.531681,3.37994 -12.66945,10.897897 -14.629967,12.720599 0.0035,0.006 -13.609218,-7.234459 -21.663424,-13.84297 z"
     id="path3754"
     inkscape:connector-curvature="0"
     style="fill:#b3b3b3;stroke-width:1.28414714" /><g
     inkscape:groupmode="layer"
     id="layer1"
     inkscape:label="Layer 1" /></svg>