<?xml version="1.0" encoding="UTF-8" standalone="no"?>
<svg
   xmlns:dc="http://purl.org/dc/elements/1.1/"
   xmlns:cc="http://creativecommons.org/ns#"
   xmlns:rdf="http://www.w3.org/1999/02/22-rdf-syntax-ns#"
   xmlns:svg="http://www.w3.org/2000/svg"
   xmlns="http://www.w3.org/2000/svg"
   xmlns:sodipodi="http://sodipodi.sourceforge.net/DTD/sodipodi-0.dtd"
   xmlns:inkscape="http://www.inkscape.org/namespaces/inkscape"
   enable-background="new 0 0 24 24"
   height="24px"
   id="Layer_1"
   version="1.1"
   viewBox="0 0 24 24"
   width="24px"
   xml:space="preserve"
   sodipodi:docname="icon_edit.svg"
   inkscape:version="0.92.3 (2405546, 2018-03-11)"><metadata
     id="metadata3729"><rdf:RDF><cc:Work
         rdf:about=""><dc:format>image/svg+xml</dc:format><dc:type
           rdf:resource="http://purl.org/dc/dcmitype/StillImage" /></cc:Work></rdf:RDF></metadata><defs
     id="defs3727" /><sodipodi:namedview
     pagecolor="#ffffff"
     bordercolor="#666666"
     borderopacity="1"
     objecttolerance="10"
     gridtolerance="10"
     guidetolerance="10"
     inkscape:pageopacity="0"
     inkscape:pageshadow="2"
     inkscape:window-width="1920"
     inkscape:window-height="1018"
     id="namedview3725"
     showgrid="false"
     inkscape:zoom="35.375"
     inkscape:cx="7.4063604"
     inkscape:cy="12"
     inkscape:window-x="-8"
     inkscape:window-y="-8"
     inkscape:window-maximized="1"
     inkscape:current-layer="Layer_1" /><path
     style="fill:#b3b3b3;stroke-width:0.02836893"
     d="M 0.00172836,20.603704 0.00346496,17.207409 7.8619479,9.3087177 c 9.9459061,-9.99679457 9.1403061,-9.19748824 9.3340991,-9.26118179 0.208388,-0.06849018 0.455163,-0.0627034 0.666844,0.01563728 0.164407,0.06084541 0.269373,0.16194452 3.054893,2.94238381 3.078126,3.0725112 2.987509,2.9740586 3.063542,3.3284078 0.03912,0.1823177 0.01498,0.4438603 -0.05559,0.6021146 -0.05894,0.1322035 -0.719681,0.7932348 -10.844255,10.8491416 L 6.8245039,23.999762 3.412252,23.999882 0,24 Z M 5.9372754,22.163211 6.043222,22.000511 4.0308021,19.988699 2.0183823,17.976887 1.8604785,18.081674 1.7025748,18.186462 v 2.070103 2.070103 l 2.064377,-3.76e-4 2.0643769,-3.8e-4 z M 12.811756,15.34881 c 3.33217,-3.276264 6.05849,-5.9660343 6.05849,-5.9772681 0,-0.011234 -0.948561,-0.968428 -2.107914,-2.1270991 l -2.107914,-2.1066744 -5.9791798,6.0773626 -5.9791803,6.077363 2.0073934,2.00658 c 1.1040663,1.103618 2.0169383,2.006579 2.0286044,2.006579 0.011666,0 2.7475311,-2.680579 6.0797003,-5.956843 z m 7.824025,-7.7058183 c 0.574046,-0.5729744 1.04372,-1.0547983 1.04372,-1.0707196 0,-0.015921 -0.948172,-0.9765622 -2.107048,-2.1347574 l -2.107048,-2.105809 -1.063898,1.0636288 -1.063899,1.0636286 2.113857,2.1129003 c 1.162621,1.1620952 2.119874,2.1129002 2.127227,2.1129002 0.0073,0 0.483043,-0.4687974 1.057089,-1.0417719 z"
     id="path4668"
     inkscape:connector-curvature="0" /></svg>