<?xml version="1.0" ?><svg enable-background="new 0 0 500 500" id="Layer_1" version="1.1" viewBox="0 0 500 500" xml:space="preserve" xmlns="http://www.w3.org/2000/svg" xmlns:xlink="http://www.w3.org/1999/xlink"><g><g><path d="M428.4,386.8H72.6V113.1h355.9V386.8z M356.3,359.5h44.7v-219H99.9v219h44.7c4.7-8.2,13.6-13.7,23.7-13.7    c10.1,0,19,5.5,23.7,13.7h116.9c4.7-8.2,13.6-13.7,23.7-13.7C342.7,345.8,351.6,351.3,356.3,359.5z"/></g><g><path d="M195.7,277.3c-30.2,0-54.8-24.6-54.8-54.8s24.6-54.8,54.8-54.8s54.8,24.6,54.8,54.8S225.9,277.3,195.7,277.3z     M195.7,195.2c-15.1,0-27.4,12.3-27.4,27.4c0,15.1,12.3,27.4,27.4,27.4c15.1,0,27.4-12.3,27.4-27.4    C223.1,207.5,210.8,195.2,195.7,195.2z"/></g><g><path d="M264.2,318.4h-27.4c0-22.6-18.4-41.1-41.1-41.1s-41.1,18.4-41.1,41.1h-27.4c0-37.7,30.7-68.4,68.4-68.4    S264.2,280.7,264.2,318.4z"/></g><g><rect height="27.4" width="82.1" x="291.6" y="208.9"/></g><g><rect height="27.4" width="82.1" x="291.6" y="263.6"/></g></g></svg>