<?xml version="1.0" encoding="UTF-8" standalone="no"?>
<!-- Generator: Adobe Illustrator 19.1.0, SVG Export Plug-In . SVG Version: 6.00 Build 0)  -->

<svg
   xmlns:dc="http://purl.org/dc/elements/1.1/"
   xmlns:cc="http://creativecommons.org/ns#"
   xmlns:rdf="http://www.w3.org/1999/02/22-rdf-syntax-ns#"
   xmlns:svg="http://www.w3.org/2000/svg"
   xmlns="http://www.w3.org/2000/svg"
   xmlns:sodipodi="http://sodipodi.sourceforge.net/DTD/sodipodi-0.dtd"
   xmlns:inkscape="http://www.inkscape.org/namespaces/inkscape"
   version="1.1"
   x="0px"
   y="0px"
   width="24px"
   height="24px"
   viewBox="0 0 24 24"
   enable-background="new 0 0 24 24"
   xml:space="preserve"
   id="svg5311"
   sodipodi:docname="outline-done_outline-24px_hover.svg"
   inkscape:version="0.92.3 (2405546, 2018-03-11)"><metadata
   id="metadata5317"><rdf:RDF><cc:Work
       rdf:about=""><dc:format>image/svg+xml</dc:format><dc:type
         rdf:resource="http://purl.org/dc/dcmitype/StillImage" /><dc:title></dc:title></cc:Work></rdf:RDF></metadata><defs
   id="defs5315" /><sodipodi:namedview
   pagecolor="#ffffff"
   bordercolor="#666666"
   borderopacity="1"
   objecttolerance="10"
   gridtolerance="10"
   guidetolerance="10"
   inkscape:pageopacity="0"
   inkscape:pageshadow="2"
   inkscape:window-width="1920"
   inkscape:window-height="1018"
   id="namedview5313"
   showgrid="false"
   inkscape:zoom="9.8333333"
   inkscape:cx="-4.5254237"
   inkscape:cy="12"
   inkscape:window-x="-8"
   inkscape:window-y="-8"
   inkscape:window-maximized="1"
   inkscape:current-layer="svg5311" />
<g
   id="Header_x2F_BG"
   display="none">
	<rect
   x="-138"
   y="-314"
   display="inline"
   fill="#F1F1F2"
   width="520"
   height="520"
   id="rect5283" />
</g>
<g
   id="Bounding_Boxes">
	<g
   id="ui_x5F_spec_x5F_header_copy_3">
	</g>
	<path
   fill="none"
   d="M0,0h24v24H0V0z"
   id="path5287" />
</g>
<g
   id="Rounded"
   display="none">
	<g
   id="ui_x5F_spec_x5F_header_copy_5"
   display="inline">
	</g>
	<path
   display="inline"
   d="M20.47,5.63L20.47,5.63c0.39,0.39,0.39,1.01,0,1.4L9.13,18.37c-0.39,0.39-1.01,0.39-1.4,0l-4.2-4.2   c-0.39-0.39-0.39-1.01,0-1.4l0,0c0.39-0.39,1.01-0.39,1.4,0l3.5,3.5L19.07,5.63C19.46,5.24,20.08,5.24,20.47,5.63z M18.36,3.51   l-9.93,9.93l-2.79-2.79c-0.78-0.78-2.05-0.78-2.83,0l-1.4,1.4c-0.78,0.78-0.78,2.05,0,2.83l5.6,5.6c0.78,0.78,2.05,0.78,2.83,0   L22.59,7.74c0.78-0.78,0.78-2.05,0-2.83l-1.4-1.4C20.4,2.73,19.14,2.73,18.36,3.51z"
   id="path5291" />
</g>
<g
   id="Sharp"
   display="none">
	<g
   id="ui_x5F_spec_x5F_header_copy_4"
   display="inline">
	</g>
	<path
   display="inline"
   d="M19.77,4.93l1.4,1.4L8.43,19.07l-5.6-5.6l1.4-1.4l4.2,4.2L19.77,4.93 M19.77,2.1L8.43,13.44l-4.2-4.2   L0,13.47l8.43,8.43L24,6.33L19.77,2.1z"
   id="path5295" />
</g>
<g
   id="Outline"
   style="fill:#000000">
	<g
   id="ui_x5F_spec_x5F_header"
   style="fill:#000000">
	</g>
	<path
   d="M19.77,4.93l1.4,1.4L8.43,19.07l-5.6-5.6l1.4-1.4l4.2,4.2L19.77,4.93 M19.77,2.1L8.43,13.44l-4.2-4.2L0,13.47l8.43,8.43   L24,6.33L19.77,2.1z"
   id="path5299"
   style="fill:#000000" />
</g>
<g
   id="Duotone"
   display="none">
	<g
   id="ui_x5F_spec_x5F_header_copy_2"
   display="inline">
	</g>
	<path
   display="inline"
   d="M19.77,4.93l1.4,1.4L8.43,19.07l-5.6-5.6l1.4-1.4l4.2,4.2L19.77,4.93 M19.77,2.1L8.43,13.44l-4.2-4.2   L0,13.47l8.43,8.43L24,6.33L19.77,2.1z"
   id="path5303" />
</g>
<g
   id="Fill"
   display="none">
	<g
   id="ui_x5F_spec_x5F_header_copy"
   display="inline">
	</g>
	<path
   display="inline"
   d="M19.77,4.93l1.4,1.4L8.43,19.07l-5.6-5.6l1.4-1.4l4.2,4.2L19.77,4.93 M19.77,2.1L8.43,13.44l-4.2-4.2   L0,13.47l8.43,8.43L24,6.33L19.77,2.1z"
   id="path5307" />
</g>
<g
   id="nyt_x5F_exporter_x5F_info"
   display="none">
</g>
</svg>