<?xml version="1.0" encoding="UTF-8" standalone="no"?>
<svg
   xmlns:dc="http://purl.org/dc/elements/1.1/"
   xmlns:cc="http://creativecommons.org/ns#"
   xmlns:rdf="http://www.w3.org/1999/02/22-rdf-syntax-ns#"
   xmlns:svg="http://www.w3.org/2000/svg"
   xmlns="http://www.w3.org/2000/svg"
   xmlns:sodipodi="http://sodipodi.sourceforge.net/DTD/sodipodi-0.dtd"
   xmlns:inkscape="http://www.inkscape.org/namespaces/inkscape"
   enable-background="new 0 0 32 32"
   height="20"
   id="Layer_1"
   version="1.1"
   viewBox="0 0 20 20"
   width="20"
   xml:space="preserve"
   sodipodi:docname="icon_calendar-20px.svg"
   inkscape:version="0.92.3 (2405546, 2018-03-11)"><metadata
     id="metadata1082"><rdf:RDF><cc:Work
         rdf:about=""><dc:format>image/svg+xml</dc:format><dc:type
           rdf:resource="http://purl.org/dc/dcmitype/StillImage" /><dc:title></dc:title></cc:Work></rdf:RDF></metadata><defs
     id="defs1080" /><sodipodi:namedview
     pagecolor="#ffffff"
     bordercolor="#666666"
     borderopacity="1"
     objecttolerance="10"
     gridtolerance="10"
     guidetolerance="10"
     inkscape:pageopacity="0"
     inkscape:pageshadow="2"
     inkscape:window-width="1920"
     inkscape:window-height="1018"
     id="namedview1078"
     showgrid="false"
     inkscape:zoom="26.53125"
     inkscape:cx="15.3404"
     inkscape:cy="16"
     inkscape:window-x="-8"
     inkscape:window-y="-8"
     inkscape:window-maximized="1"
     inkscape:current-layer="Layer_1" /><g
     id="calendar_1_"
     transform="matrix(0.5625,0,0,0.5593125,1,1.102)"><path
       d="M 29.334,3 H 25 V 1 C 25,0.447 24.553,0 24,0 23.447,0 23,0.447 23,1 V 3 H 17 V 1 C 17,0.447 16.552,0 16,0 15.448,0 15,0.447 15,1 V 3 H 9 V 1 C 9,0.447 8.552,0 8,0 7.448,0 7,0.447 7,1 V 3 H 2.667 C 1.194,3 0,4.193 0,5.666 V 29.333 C 0,30.806 1.194,32 2.667,32 H 29.334 C 30.807,32 32,30.806 32,29.333 V 5.666 C 32,4.193 30.807,3 29.334,3 Z M 30,29.333 C 30,29.701 29.701,30 29.334,30 H 2.667 C 2.299,30 2,29.701 2,29.333 V 5.666 C 2,5.299 2.299,5 2.667,5 H 7 V 7 C 7,7.553 7.448,8 8,8 8.552,8 9,7.553 9,7 V 5 h 6 v 2 c 0,0.553 0.448,1 1,1 0.552,0 1,-0.447 1,-1 V 5 h 6 v 2 c 0,0.553 0.447,1 1,1 0.553,0 1,-0.447 1,-1 V 5 h 4.334 C 29.701,5 30,5.299 30,5.666 Z"
       id="path1056"
       inkscape:connector-curvature="0"
       style="fill:#333332" /><rect
       height="3"
       width="4"
       x="7"
       y="12"
       id="rect1058"
       style="fill:#333332" /><rect
       height="3"
       width="4"
       x="7"
       y="17"
       id="rect1060"
       style="fill:#333332" /><rect
       height="3"
       width="4"
       x="7"
       y="22"
       id="rect1062"
       style="fill:#333332" /><rect
       height="3"
       width="4"
       x="14"
       y="22"
       id="rect1064"
       style="fill:#333332" /><rect
       height="3"
       width="4"
       x="14"
       y="17"
       id="rect1066"
       style="fill:#333332" /><rect
       height="3"
       width="4"
       x="14"
       y="12"
       id="rect1068"
       style="fill:#333332" /><rect
       height="3"
       width="4"
       x="21"
       y="22"
       id="rect1070"
       style="fill:#333332" /><rect
       height="3"
       width="4"
       x="21"
       y="17"
       id="rect1072"
       style="fill:#333332" /><rect
       height="3"
       width="4"
       x="21"
       y="12"
       id="rect1074"
       style="fill:#333332" /></g></svg>