<?xml version="1.0" encoding="UTF-8" standalone="no"?>
<svg
   xmlns:dc="http://purl.org/dc/elements/1.1/"
   xmlns:cc="http://creativecommons.org/ns#"
   xmlns:rdf="http://www.w3.org/1999/02/22-rdf-syntax-ns#"
   xmlns:svg="http://www.w3.org/2000/svg"
   xmlns="http://www.w3.org/2000/svg"
   xmlns:sodipodi="http://sodipodi.sourceforge.net/DTD/sodipodi-0.dtd"
   xmlns:inkscape="http://www.inkscape.org/namespaces/inkscape"
   enable-background="new 0 0 139 139"
   height="20"
   id="Phone"
   version="1.1"
   viewBox="0 0 20 20"
   width="20"
   xml:space="preserve"
   sodipodi:docname="icon_call-20px.svg"
   inkscape:version="0.92.3 (2405546, 2018-03-11)"><metadata
     id="metadata3761"><rdf:RDF><cc:Work
         rdf:about=""><dc:format>image/svg+xml</dc:format><dc:type
           rdf:resource="http://purl.org/dc/dcmitype/StillImage" /><dc:title></dc:title></cc:Work></rdf:RDF></metadata><defs
     id="defs3759" /><sodipodi:namedview
     pagecolor="#ffffff"
     bordercolor="#666666"
     borderopacity="1"
     objecttolerance="10"
     gridtolerance="10"
     guidetolerance="10"
     inkscape:pageopacity="0"
     inkscape:pageshadow="2"
     inkscape:window-width="1920"
     inkscape:window-height="1018"
     id="namedview3757"
     showgrid="false"
     inkscape:zoom="34.782193"
     inkscape:cx="9.0045299"
     inkscape:cy="10.022808"
     inkscape:window-x="-8"
     inkscape:window-y="-8"
     inkscape:window-maximized="1"
     inkscape:current-layer="Phone" /><path
     d="M 9.636646,12.070324 C 8.089944,10.801165 7.057199,9.2350814 6.514253,8.3439773 L 6.109252,7.5820493 C 6.250861,7.4304283 7.330754,6.2764805 7.798729,5.6503795 8.386823,4.8641787 7.534171,4.1541206 7.534171,4.1541206 c 0,0 -2.3991885,-2.3945115 -2.9459656,-2.8694905 C 4.0414288,0.80898633 3.412018,1.0731597 3.412018,1.0731597 2.2628206,1.8141395 1.0714733,2.4583622 1.0000024,5.5566139 c -0.00267,2.9007462 2.2039337,5.8925971 4.5901279,8.2087991 2.3900247,2.615793 5.6715197,5.237583 8.8440567,5.234584 3.104395,-0.07065 3.749805,-1.259348 4.492337,-2.406161 0,0 0.264896,-0.627582 -0.211248,-1.173727 -0.476477,-0.545952 -2.876325,-2.940641 -2.876325,-2.940641 0,0 -0.711046,-0.851039 -1.499058,-0.263674 -0.587259,0.438071 -1.641829,1.412468 -1.895892,1.648707 4.54e-4,7.78e-4 -1.763614,-0.937652 -2.807355,-1.794177 z"
     id="path3754"
     inkscape:connector-curvature="0"
     style="fill:#b3b3b3;stroke-width:0.16642474" /><g
     inkscape:groupmode="layer"
     id="layer1"
     inkscape:label="Layer 1"
     transform="translate(0,-119)" /></svg>