<?xml version="1.0" encoding="UTF-8" standalone="no"?>
<svg
   xmlns:dc="http://purl.org/dc/elements/1.1/"
   xmlns:cc="http://creativecommons.org/ns#"
   xmlns:rdf="http://www.w3.org/1999/02/22-rdf-syntax-ns#"
   xmlns:svg="http://www.w3.org/2000/svg"
   xmlns="http://www.w3.org/2000/svg"
   xmlns:sodipodi="http://sodipodi.sourceforge.net/DTD/sodipodi-0.dtd"
   xmlns:inkscape="http://www.inkscape.org/namespaces/inkscape"
   enable-background="new 0 0 50 50"
   height="20"
   id="Layer_1"
   version="1.1"
   viewBox="0 0 20 20"
   width="20"
   xml:space="preserve"
   sodipodi:docname="call-hover-20px.svg"
   inkscape:version="0.92.3 (2405546, 2018-03-11)"><metadata
     id="metadata30"><rdf:RDF><cc:Work
         rdf:about=""><dc:format>image/svg+xml</dc:format><dc:type
           rdf:resource="http://purl.org/dc/dcmitype/StillImage" /><dc:title></dc:title></cc:Work></rdf:RDF></metadata><defs
     id="defs28" /><sodipodi:namedview
     pagecolor="#ffffff"
     bordercolor="#666666"
     borderopacity="1"
     objecttolerance="10"
     gridtolerance="10"
     guidetolerance="10"
     inkscape:pageopacity="0"
     inkscape:pageshadow="2"
     inkscape:window-width="1920"
     inkscape:window-height="1018"
     id="namedview26"
     showgrid="false"
     inkscape:zoom="16.98"
     inkscape:cx="15.429918"
     inkscape:cy="25"
     inkscape:window-x="-8"
     inkscape:window-y="-8"
     inkscape:window-maximized="1"
     inkscape:current-layer="Layer_1" /><rect
     height="50"
     width="50"
     id="rect21"
     x="0"
     y="-30"
     style="fill:none" /><path
     d="m 11.871524,13.690083 c 0,0 1.456694,-0.834614 1.838047,-1.035166 0.380273,-0.201272 0.774217,-0.25204 1.013462,-0.105857 0.362285,0.221796 3.404471,2.247119 3.660624,2.426428 0.256154,0.179669 0.379554,0.692751 0.02734,1.195391 -0.350771,0.50264 -1.969001,2.490158 -2.654717,2.468915 -0.686791,-0.02232 -3.542257,-0.08497 -8.9268832,-5.475395 C 1.4458496,7.7757773 1.3821709,4.9172806 1.3602251,4.2299311 1.3382794,3.5429413 3.3241906,1.9230422 3.8264246,1.5716261 4.3293783,1.22057 4.8427651,1.3527113 5.0212093,1.5997118 5.2241176,1.8809169 7.2244195,4.9158415 7.4445966,5.2636571 7.5953388,5.5012951 7.5399346,5.8977185 7.3388252,6.2786595 7.138795,6.6603202 6.3048562,8.1181931 6.3048562,8.1181931 c 0,0 0.5878586,1.0034805 2.5759284,2.9927989 1.9884294,1.989678 2.9907394,2.579092 2.9907394,2.579091 z"
     stroke-miterlimit="10"
     id="path23"
     inkscape:connector-curvature="0"
     style="fill:#ffffff;stroke:#000000;stroke-width:1.5;stroke-miterlimit:10;fill-opacity:1;stroke-opacity:1;stroke-dasharray:none" /></svg>