<?xml version="1.0" encoding="UTF-8" standalone="no"?>
<svg
   xmlns:dc="http://purl.org/dc/elements/1.1/"
   xmlns:cc="http://creativecommons.org/ns#"
   xmlns:rdf="http://www.w3.org/1999/02/22-rdf-syntax-ns#"
   xmlns:svg="http://www.w3.org/2000/svg"
   xmlns="http://www.w3.org/2000/svg"
   xmlns:sodipodi="http://sodipodi.sourceforge.net/DTD/sodipodi-0.dtd"
   xmlns:inkscape="http://www.inkscape.org/namespaces/inkscape"
   enable-background="new 0 0 500 500"
   id="Layer_1"
   version="1.1"
   viewBox="0 0 20 20"
   xml:space="preserve"
   sodipodi:docname="contact-20px.svg"
   width="20"
   height="20"
   inkscape:version="0.92.3 (2405546, 2018-03-11)"><metadata
     id="metadata1456"><rdf:RDF><cc:Work
         rdf:about=""><dc:format>image/svg+xml</dc:format><dc:type
           rdf:resource="http://purl.org/dc/dcmitype/StillImage" /><dc:title></dc:title></cc:Work></rdf:RDF></metadata><defs
     id="defs1454" /><sodipodi:namedview
     pagecolor="#ffffff"
     bordercolor="#666666"
     borderopacity="1"
     objecttolerance="10"
     gridtolerance="10"
     guidetolerance="10"
     inkscape:pageopacity="0"
     inkscape:pageshadow="2"
     inkscape:window-width="1920"
     inkscape:window-height="1018"
     id="namedview1452"
     showgrid="false"
     inkscape:zoom="21.360282"
     inkscape:cx="17.793181"
     inkscape:cy="4.6190975"
     inkscape:window-x="-8"
     inkscape:window-y="-8"
     inkscape:window-maximized="1"
     inkscape:current-layer="g1431" /><g
     id="g1449"
     transform="matrix(0.050576,0,0,0.05042017,-2.6718179,-2.6025218)"
     style="fill:#b3b3b3"><g
       id="g1431"
       style="fill:#b3b3b3"><path
         d="M 428.4,386.8 H 72.6 V 113.1 H 428.5 V 386.8 Z M 356.3,359.5 H 401 v -219 H 99.9 v 219 h 44.7 c 4.7,-8.2 13.6,-13.7 23.7,-13.7 10.1,0 19,5.5 23.7,13.7 h 116.9 c 4.7,-8.2 13.6,-13.7 23.7,-13.7 10.1,0 19,5.5 23.7,13.7 z"
         id="path1429"
         inkscape:connector-curvature="0"
         style="fill:#b3b3b3" /></g><g
       id="g1435"
       style="fill:#b3b3b3"><path
         d="m 195.7,277.3 c -30.2,0 -54.8,-24.6 -54.8,-54.8 0,-30.2 24.6,-54.8 54.8,-54.8 30.2,0 54.8,24.6 54.8,54.8 0,30.2 -24.6,54.8 -54.8,54.8 z m 0,-82.1 c -15.1,0 -27.4,12.3 -27.4,27.4 0,15.1 12.3,27.4 27.4,27.4 15.1,0 27.4,-12.3 27.4,-27.4 0,-15.1 -12.3,-27.4 -27.4,-27.4 z"
         id="path1433"
         inkscape:connector-curvature="0"
         style="fill:#b3b3b3" /></g><g
       id="g1439"
       style="fill:#b3b3b3"><path
         d="m 264.2,318.4 h -27.4 c 0,-22.6 -18.4,-41.1 -41.1,-41.1 -22.7,0 -41.1,18.4 -41.1,41.1 h -27.4 c 0,-37.7 30.7,-68.4 68.4,-68.4 37.7,0 68.6,30.7 68.6,68.4 z"
         id="path1437"
         inkscape:connector-curvature="0"
         style="fill:#b3b3b3" /></g><g
       id="g1443"
       style="fill:#b3b3b3"><rect
         height="27.4"
         width="82.099998"
         x="291.60001"
         y="208.89999"
         id="rect1441"
         style="fill:#b3b3b3" /></g><g
       id="g1447"
       style="fill:#b3b3b3"><rect
         height="27.4"
         width="82.099998"
         x="291.60001"
         y="263.60001"
         id="rect1445"
         style="fill:#b3b3b3" /></g></g></svg>