<?xml version="1.0" encoding="UTF-8" standalone="no"?>
<svg
   xmlns:dc="http://purl.org/dc/elements/1.1/"
   xmlns:cc="http://creativecommons.org/ns#"
   xmlns:rdf="http://www.w3.org/1999/02/22-rdf-syntax-ns#"
   xmlns:svg="http://www.w3.org/2000/svg"
   xmlns="http://www.w3.org/2000/svg"
   xmlns:sodipodi="http://sodipodi.sourceforge.net/DTD/sodipodi-0.dtd"
   xmlns:inkscape="http://www.inkscape.org/namespaces/inkscape"
   enable-background="new 0 0 139 139"
   height="20"
   id="Phone"
   version="1.1"
   viewBox="0 0 20 20"
   width="20"
   xml:space="preserve"
   sodipodi:docname="call-hover-20px.svg"
   inkscape:version="0.92.3 (2405546, 2018-03-11)"><metadata
     id="metadata3761"><rdf:RDF><cc:Work
         rdf:about=""><dc:format>image/svg+xml</dc:format><dc:type
           rdf:resource="http://purl.org/dc/dcmitype/StillImage" /><dc:title></dc:title></cc:Work></rdf:RDF></metadata><defs
     id="defs3759" /><sodipodi:namedview
     pagecolor="#ffffff"
     bordercolor="#666666"
     borderopacity="1"
     objecttolerance="10"
     gridtolerance="10"
     guidetolerance="10"
     inkscape:pageopacity="0"
     inkscape:pageshadow="2"
     inkscape:window-width="1920"
     inkscape:window-height="1018"
     id="namedview3757"
     showgrid="false"
     inkscape:zoom="34.782193"
     inkscape:cx="10.01954"
     inkscape:cy="9.9734424"
     inkscape:window-x="-8"
     inkscape:window-y="-8"
     inkscape:window-maximized="1"
     inkscape:current-layer="Phone" /><path
     d="M 9.6366462,12.070324 C 8.089944,10.801165 7.0571986,9.2350814 6.5142533,8.3439769 L 6.1092522,7.5820489 C 6.2508608,7.4304278 7.3307539,6.2764801 7.7987295,5.6503791 8.3868235,4.8641783 7.5341709,4.1541202 7.5341709,4.1541202 c 0,0 -2.3991884,-2.3945116 -2.9459655,-2.8694905 C 4.0414288,0.80898593 3.412018,1.0731593 3.412018,1.0731593 2.2628206,1.8141391 1.0714733,2.4583618 1.0000024,5.5566134 c -0.002666,2.9007463 2.2039337,5.8925976 4.5901279,8.2087996 2.3900252,2.615793 5.6715197,5.237583 8.8440567,5.234584 3.104395,-0.07065 3.749805,-1.259348 4.492337,-2.40616 0,0 0.264896,-0.627584 -0.211248,-1.173728 -0.476477,-0.545952 -2.876324,-2.940641 -2.876324,-2.940641 0,0 -0.711047,-0.851038 -1.499058,-0.263674 -0.587259,0.438071 -1.64183,1.412468 -1.895893,1.648707 4.54e-4,7.78e-4 -1.763614,-0.937653 -2.8073548,-1.794177 z"
     id="path3754"
     inkscape:connector-curvature="0"
     style="fill:#000000;stroke-width:0.16642474" /><g
     inkscape:groupmode="layer"
     id="layer1"
     inkscape:label="Layer 1"
     transform="translate(0,-119)" /></svg>