<?xml version="1.0" encoding="UTF-8" standalone="no"?>
<!-- Generator: Adobe Illustrator 19.1.0, SVG Export Plug-In . SVG Version: 6.00 Build 0)  -->

<svg
   xmlns:dc="http://purl.org/dc/elements/1.1/"
   xmlns:cc="http://creativecommons.org/ns#"
   xmlns:rdf="http://www.w3.org/1999/02/22-rdf-syntax-ns#"
   xmlns:svg="http://www.w3.org/2000/svg"
   xmlns="http://www.w3.org/2000/svg"
   xmlns:sodipodi="http://sodipodi.sourceforge.net/DTD/sodipodi-0.dtd"
   xmlns:inkscape="http://www.inkscape.org/namespaces/inkscape"
   version="1.1"
   x="0px"
   y="0px"
   width="20"
   height="20"
   viewBox="0 0 20 20"
   enable-background="new 0 0 24 24"
   xml:space="preserve"
   id="svg5311"
   sodipodi:docname="done-24px.svg"
   inkscape:version="0.92.3 (2405546, 2018-03-11)"><metadata
   id="metadata5317"><rdf:RDF><cc:Work
       rdf:about=""><dc:format>image/svg+xml</dc:format><dc:type
         rdf:resource="http://purl.org/dc/dcmitype/StillImage" /><dc:title></dc:title></cc:Work></rdf:RDF></metadata><defs
   id="defs5315" /><sodipodi:namedview
   pagecolor="#ffffff"
   bordercolor="#666666"
   borderopacity="1"
   objecttolerance="10"
   gridtolerance="10"
   guidetolerance="10"
   inkscape:pageopacity="0"
   inkscape:pageshadow="2"
   inkscape:window-width="1920"
   inkscape:window-height="1018"
   id="namedview5313"
   showgrid="false"
   inkscape:zoom="9.8333333"
   inkscape:cx="-4.5254237"
   inkscape:cy="12"
   inkscape:window-x="-8"
   inkscape:window-y="-8"
   inkscape:window-maximized="1"
   inkscape:current-layer="svg5311" />
<g
   id="Header_x2F_BG"
   display="none"
   style="display:none"
   transform="translate(0,-4)">
	<rect
   x="-138"
   y="-314"
   display="inline"
   width="520"
   height="520"
   id="rect5283"
   style="display:inline;fill:#f1f1f2" />
</g>
<g
   id="Bounding_Boxes"
   transform="translate(0,-4)">
	<g
   id="ui_x5F_spec_x5F_header_copy_3">
	</g>
	<path
   d="M 0,0 H 24 V 24 H 0 Z"
   id="path5287"
   inkscape:connector-curvature="0"
   style="fill:none" />
</g>
<g
   id="Rounded"
   display="none"
   style="display:none"
   transform="translate(0,-4)">
	<g
   id="ui_x5F_spec_x5F_header_copy_5"
   display="inline"
   style="display:inline">
	</g>
	<path
   display="inline"
   d="m 20.47,5.63 v 0 c 0.39,0.39 0.39,1.01 0,1.4 L 9.13,18.37 c -0.39,0.39 -1.01,0.39 -1.4,0 l -4.2,-4.2 c -0.39,-0.39 -0.39,-1.01 0,-1.4 v 0 c 0.39,-0.39 1.01,-0.39 1.4,0 l 3.5,3.5 10.64,-10.64 c 0.39,-0.39 1.01,-0.39 1.4,0 z M 18.36,3.51 8.43,13.44 5.64,10.65 C 4.86,9.87 3.59,9.87 2.81,10.65 l -1.4,1.4 c -0.78,0.78 -0.78,2.05 0,2.83 l 5.6,5.6 c 0.78,0.78 2.05,0.78 2.83,0 L 22.59,7.74 c 0.78,-0.78 0.78,-2.05 0,-2.83 l -1.4,-1.4 c -0.79,-0.78 -2.05,-0.78 -2.83,0 z"
   id="path5291"
   inkscape:connector-curvature="0"
   style="display:inline" />
</g>
<g
   id="Sharp"
   display="none"
   style="display:none"
   transform="translate(0,-4)">
	<g
   id="ui_x5F_spec_x5F_header_copy_4"
   display="inline"
   style="display:inline">
	</g>
	<path
   display="inline"
   d="m 19.77,4.93 1.4,1.4 -12.74,12.74 -5.6,-5.6 1.4,-1.4 4.2,4.2 L 19.77,4.93 M 19.77,2.1 8.43,13.44 4.23,9.24 0,13.47 8.43,21.9 24,6.33 Z"
   id="path5295"
   inkscape:connector-curvature="0"
   style="display:inline" />
</g>
<g
   id="Outline"
   style="fill:#b3b3b3"
   transform="matrix(0.75,0,0,0.75,1,1.5)">
	<g
   id="ui_x5F_spec_x5F_header"
   style="fill:#b3b3b3">
	</g>
	<path
   d="m 19.77,4.93 1.4,1.4 -12.74,12.74 -5.6,-5.6 1.4,-1.4 4.2,4.2 L 19.77,4.93 M 19.77,2.1 8.43,13.44 4.23,9.24 0,13.47 8.43,21.9 24,6.33 Z"
   id="path5299"
   style="fill:#b3b3b3"
   inkscape:connector-curvature="0" />
</g>
<g
   id="Duotone"
   display="none"
   style="display:none"
   transform="translate(0,-4)">
	<g
   id="ui_x5F_spec_x5F_header_copy_2"
   display="inline"
   style="display:inline">
	</g>
	<path
   display="inline"
   d="m 19.77,4.93 1.4,1.4 -12.74,12.74 -5.6,-5.6 1.4,-1.4 4.2,4.2 L 19.77,4.93 M 19.77,2.1 8.43,13.44 4.23,9.24 0,13.47 8.43,21.9 24,6.33 Z"
   id="path5303"
   inkscape:connector-curvature="0"
   style="display:inline" />
</g>
<g
   id="Fill"
   display="none"
   style="display:none"
   transform="translate(0,-4)">
	<g
   id="ui_x5F_spec_x5F_header_copy"
   display="inline"
   style="display:inline">
	</g>
	<path
   display="inline"
   d="m 19.77,4.93 1.4,1.4 -12.74,12.74 -5.6,-5.6 1.4,-1.4 4.2,4.2 L 19.77,4.93 M 19.77,2.1 8.43,13.44 4.23,9.24 0,13.47 8.43,21.9 24,6.33 Z"
   id="path5307"
   inkscape:connector-curvature="0"
   style="display:inline" />
</g>
<g
   id="nyt_x5F_exporter_x5F_info"
   display="none"
   style="display:none"
   transform="translate(0,-4)">
</g>
</svg>