<?xml version="1.0" encoding="UTF-8" standalone="no"?>
<svg
   xmlns:dc="http://purl.org/dc/elements/1.1/"
   xmlns:cc="http://creativecommons.org/ns#"
   xmlns:rdf="http://www.w3.org/1999/02/22-rdf-syntax-ns#"
   xmlns:svg="http://www.w3.org/2000/svg"
   xmlns="http://www.w3.org/2000/svg"
   xmlns:sodipodi="http://sodipodi.sourceforge.net/DTD/sodipodi-0.dtd"
   xmlns:inkscape="http://www.inkscape.org/namespaces/inkscape"
   enable-background="new 0 0 24 24"
   height="20"
   id="Layer_1"
   version="1.1"
   viewBox="0 0 20 20"
   width="20"
   xml:space="preserve"
   sodipodi:docname="edit-hover-20px.svg"
   inkscape:version="0.92.3 (2405546, 2018-03-11)"><metadata
     id="metadata3729"><rdf:RDF><cc:Work
         rdf:about=""><dc:format>image/svg+xml</dc:format><dc:type
           rdf:resource="http://purl.org/dc/dcmitype/StillImage" /><dc:title></dc:title></cc:Work></rdf:RDF></metadata><defs
     id="defs3727" /><sodipodi:namedview
     pagecolor="#ffffff"
     bordercolor="#666666"
     borderopacity="1"
     objecttolerance="10"
     gridtolerance="10"
     guidetolerance="10"
     inkscape:pageopacity="0"
     inkscape:pageshadow="2"
     inkscape:window-width="1920"
     inkscape:window-height="1018"
     id="namedview3725"
     showgrid="false"
     inkscape:zoom="17.6875"
     inkscape:cx="16.700485"
     inkscape:cy="14.56118"
     inkscape:window-x="-8"
     inkscape:window-y="-8"
     inkscape:window-maximized="1"
     inkscape:current-layer="Layer_1" /><path
     style="fill:#000000;stroke-width:0.02127669"
     d="m 1.0012963,16.452778 0.0013,-2.547221 5.893862,-5.9240188 C 14.35589,0.4839422 13.75169,1.083422 13.897035,1.0356518 c 0.156291,-0.051368 0.341372,-0.047027 0.500133,0.011728 0.123305,0.045634 0.20203,0.1214584 2.291169,2.2067879 2.308595,2.3043834 2.240632,2.230544 2.297657,2.4963059 0.02934,0.1367383 0.01123,0.3328952 -0.04169,0.4515859 -0.0442,0.099153 -0.53976,0.5949261 -8.133191,8.1368565 l -4.6927353,4.660905 -2.5591888,9e-5 L 1,19 Z m 4.4516601,1.16963 0.07946,-0.122025 -1.5093148,-1.508859 -1.5093148,-1.508859 -0.1184279,0.07859 -0.1184277,0.07859 V 16.192423 17.745 l 1.5482826,-2.82e-4 1.5482827,-2.85e-4 z m 5.1558606,-5.110801 c 2.499127,-2.457198 4.543867,-4.4745253 4.543867,-4.4829507 0,-0.00843 -0.711421,-0.726321 -1.580935,-1.5953243 L 11.990813,4.8533262 7.5064284,9.411348 3.0220434,13.96937 4.5275883,15.474305 c 0.8280497,0.827714 1.5127037,1.504935 1.5214533,1.504935 0.00875,0 2.0606482,-2.010435 4.5597754,-4.467633 z m 5.868018,-5.7793633 c 0.430535,-0.4297308 0.78279,-0.7910987 0.78279,-0.8030397 0,-0.011941 -0.711129,-0.7324217 -1.580286,-1.6010681 L 14.099053,2.7487792 13.30113,3.5465008 12.503206,4.3442222 14.088598,5.9288975 c 0.871966,0.8715714 1.589906,1.5846751 1.59542,1.5846751 0.0055,0 0.362283,-0.351598 0.792817,-0.7813289 z"
     id="path4668"
     inkscape:connector-curvature="0" /></svg>